<svg xmlns="http://www.w3.org/2000/svg" viewBox="0 0 1200 1200" role="img" aria-label="Booogz full logo">
  <svg x="330" y="120" width="540" height="540" viewBox="0 0 720 720">
    <ns0:defs xmlns:ns0="http://www.w3.org/2000/svg">
    <ns0:mask id="cutout">
      <ns0:rect width="720" height="720" fill="white" />
      <ns0:circle cx="398" cy="424" r="105" fill="black" />
    </ns0:mask>
  </ns0:defs>

  
    <ns0:g xmlns:ns0="http://www.w3.org/2000/svg" mask="url(#cutout)" fill="#142337">
    
    <ns0:rect x="188" y="66" width="126" height="390" rx="63" />
    
    <ns0:circle cx="398" cy="410" r="210" />
  </ns0:g>

  
  
    <ns0:path xmlns:ns0="http://www.w3.org/2000/svg" d="M347 474 C375 500 421 500 449 474" fill="none" stroke="#ff7627" stroke-width="31" stroke-linecap="round" />

  </svg>

  <svg x="249" y="760" width="702" height="187.2" viewBox="0 0 900 240">
    <ns0:path xmlns:ns0="http://www.w3.org/2000/svg" d="m 97.76,81.024 q 12.672,0 22.88,6.336 10.384,6.336 16.192,17.6 5.984,11.088 5.984,24.816 0,13.728 -6.336,24.992 -6.336,11.088 -17.6,17.6 -11.088,6.336 -24.64,6.336 -13.552,0 -24.64,-6.336 -10.912,-6.512 -17.424,-17.6 Q 45.84,143.504 45.84,129.776 V 49.52 q 0,-4.048 2.464,-6.512 2.64,-2.464 6.512,-2.464 4.048,0 6.512,2.464 2.464,2.464 2.464,6.512 v 47.52 q 6.16,-7.568 14.96,-11.792 8.8,-4.224 19.008,-4.224 z m -3.52,81.84 q 8.8,0 15.84,-4.224 7.216,-4.4 11.264,-11.968 4.224,-7.568 4.224,-16.896 0,-9.328 -4.224,-16.72 -4.048,-7.568 -11.264,-11.792 -7.04,-4.4 -15.84,-4.4 -8.8,0 -16.016,4.4 -7.04,4.224 -11.088,11.792 -4.048,7.392 -4.048,16.72 0,9.328 4.048,16.896 4.048,7.568 11.088,11.968 7.216,4.224 16.016,4.224 z m 110.97584,15.84 q -14.08,0 -25.168,-6.16 -11.088,-6.336 -17.248,-17.424 -6.16,-11.088 -6.16,-25.168 0,-14.256 6.16,-25.344 6.16,-11.088 17.248,-17.248 11.088,-6.336 25.168,-6.336 13.904,0 24.816,6.336 11.088,6.16 17.248,17.248 6.336,11.088 6.336,25.344 0,14.08 -6.16,25.168 -6.16,11.088 -17.248,17.424 -10.912,6.16 -24.992,6.16 z m 0,-15.84 q 8.976,0 16.016,-4.224 7.216,-4.224 11.088,-11.616 4.048,-7.568 4.048,-17.072 0,-9.504 -4.048,-17.072 -3.872,-7.568 -11.088,-11.792 -7.04,-4.224 -16.016,-4.224 -8.976,0 -16.192,4.224 -7.04,4.224 -11.088,11.792 -4.048,7.568 -4.048,17.072 0,9.504 4.048,17.072 4.048,7.392 11.088,11.616 7.216,4.224 16.192,4.224 z m 110.79987,15.84 q -14.08,0 -25.168,-6.16 -11.088,-6.336 -17.248,-17.424 -6.16,-11.088 -6.16,-25.168 0,-14.256 6.16,-25.344 6.16,-11.088 17.248,-17.248 11.088,-6.336 25.168,-6.336 13.904,0 24.816,6.336 11.088,6.16 17.248,17.248 6.336,11.088 6.336,25.344 0,14.08 -6.16,25.168 -6.16,11.088 -17.248,17.424 -10.912,6.16 -24.992,6.16 z m 0,-15.84 q 8.976,0 16.016,-4.224 7.216,-4.224 11.088,-11.616 4.048,-7.568 4.048,-17.072 0,-9.504 -4.048,-17.072 -3.872,-7.568 -11.088,-11.792 -7.04,-4.224 -16.016,-4.224 -8.976,0 -16.192,4.224 -7.04,4.224 -11.088,11.792 -4.048,7.568 -4.048,17.072 0,9.504 4.048,17.072 4.048,7.392 11.088,11.616 7.216,4.224 16.192,4.224 z m 110.79987,15.84 q -14.08,0 -25.168,-6.16 -11.088,-6.336 -17.248,-17.424 -6.16,-11.088 -6.16,-25.168 0,-14.256 6.16,-25.344 6.16,-11.088 17.248,-17.248 11.088,-6.336 25.168,-6.336 13.904,0 24.816,6.336 11.088,6.16 17.248,17.248 6.336,11.088 6.336,25.344 0,14.08 -6.16,25.168 -6.16,11.088 -17.248,17.424 -10.912,6.16 -24.992,6.16 z m 0,-15.84 q 8.976,0 16.016,-4.224 7.216,-4.224 11.088,-11.616 4.048,-7.568 4.048,-17.072 0,-9.504 -4.048,-17.072 -3.872,-7.568 -11.088,-11.792 -7.04,-4.224 -16.016,-4.224 -8.976,0 -16.192,4.224 -7.04,4.224 -11.088,11.792 -4.048,7.568 -4.048,17.072 0,9.504 4.048,17.072 4.048,7.392 11.088,11.616 7.216,4.224 16.192,4.224 z m 110.79986,-81.84 q 13.904,0 24.816,6.336 11.088,6.16 17.248,17.248 6.336,11.088 6.336,25.344 v 38.016 q 0,13.904 -6.16,25.344 -6.16,11.44 -17.424,17.952 -11.088,6.688 -25.168,6.688 -12.672,0 -23.584,-5.104 -10.912,-4.928 -18.304,-14.256 -1.936,-2.464 -1.936,-4.928 0,-3.696 3.696,-6.336 2.464,-1.584 4.928,-1.584 4.4,0 7.216,3.696 4.752,6.16 11.968,9.328 7.216,3.344 16.368,3.344 8.624,0 15.664,-4.224 7.04,-4.048 11.264,-12.144 4.224,-7.92 4.224,-19.008 v -8.624 q -5.456,9.68 -14.432,15.136 -8.976,5.456 -20.24,5.456 -13.024,0 -23.408,-6.16 -10.208,-6.336 -16.016,-17.424 -5.632,-11.088 -5.632,-25.168 0,-14.256 6.16,-25.344 6.16,-11.088 17.248,-17.248 11.088,-6.336 25.168,-6.336 z m 0,81.84 q 8.976,0 16.016,-4.224 7.216,-4.224 11.088,-11.616 4.048,-7.568 4.048,-17.072 0,-9.504 -4.048,-17.072 -3.872,-7.568 -11.088,-11.792 -7.04,-4.224 -16.016,-4.224 -8.976,0 -16.192,4.224 -7.04,4.224 -11.088,11.792 -4.048,7.568 -4.048,17.072 0,9.504 4.048,17.072 4.048,7.392 11.088,11.616 7.216,4.224 16.192,4.224 z m 131.03987,-1.408 q 8.272,0 8.272,8.272 0,8.272 -8.272,8.272 h -60.016 q -8.272,0 -8.272,-8.272 0,-3.52 1.584,-5.632 l 49.808,-65.824 h -44.88 q -8.272,0 -8.272,-8.272 0,-8.272 8.272,-8.272 h 60.016 q 8.272,0 8.272,8.272 0,3.52 -1.584,5.632 l -49.632,65.824 z" id="text1" style="font-weight:700;font-size:176px;font-family:Comfortaa;letter-spacing:-8;fill:#142337" aria-label="booogz" />

  </svg>
</svg>
