<?xml version="1.0" encoding="UTF-8"?>
<svg id="_Слой_1" data-name="Слой_1" xmlns="http://www.w3.org/2000/svg" version="1.1" xmlns:ns0="http://www.w3.org/2000/svg" xmlns:xlink="http://www.w3.org/1999/xlink" viewBox="0 0 1200 1200">
  <!-- Generator: Adobe Illustrator 29.8.1, SVG Export Plug-In . SVG Version: 2.1.1 Build 2)  -->
  <defs>
    <style>
      .st0 {
        fill: #fff;
      }

      .st1 {
        fill: #142337;
      }

      .st2 {
        mask: url(#mask);
      }

      .st3 {
        fill: none;
        stroke: #ff7627;
        stroke-linecap: round;
        stroke-miterlimit: 3;
        stroke-width: 23.25px;
      }
    </style>
    <mask id="mask" x="234.74" y="316" width="540" height="540" maskUnits="userSpaceOnUse">
      <g id="cutout">
        <rect class="st0" x="234.74" y="316" width="540" height="540"/>
        <circle cx="533.24" cy="634" r="78.75"/>
      </g>
    </mask>
  </defs>
  <g class="st2">
    <g>
      <path class="st1" d="M422.99,365.5h0c26.1,0,47.25,21.15,47.25,47.25v198c0,26.1-21.15,47.25-47.25,47.25h0c-26.1,0-47.25-21.15-47.25-47.25v-198c0-26.1,21.15-47.25,47.25-47.25Z"/>
      <circle class="st1" cx="533.24" cy="623.5" r="157.5"/>
    </g>
  </g>
  <path class="st3" d="M494.99,674.18c21,19.5,55.5,19.5,76.5,0"/>
  <path id="text1" class="st1" d="M325.25,823.2c6.59,0,12.54,1.65,17.85,4.94,5.4,3.29,9.61,7.87,12.63,13.73,3.11,5.77,4.67,12.22,4.67,19.36s-1.65,13.64-4.94,19.49c-3.29,5.77-7.87,10.34-13.73,13.73-5.77,3.29-12.17,4.94-19.22,4.94-7.05,0-13.45-1.65-19.22-4.94-5.67-3.39-10.2-7.96-13.59-13.73-3.29-5.86-4.94-12.36-4.94-19.49v-62.6c0-2.1.64-3.8,1.92-5.08,1.37-1.28,3.07-1.92,5.08-1.92s3.8.64,5.08,1.92c1.28,1.28,1.92,2.97,1.92,5.08v37.07c3.2-3.94,7.09-7,11.67-9.2s9.52-3.29,14.83-3.29ZM322.51,887.03c4.58,0,8.69-1.1,12.36-3.29,3.75-2.29,6.68-5.4,8.79-9.34,2.2-3.94,3.29-8.33,3.29-13.18s-1.1-9.2-3.29-13.04c-2.1-3.94-5.03-7-8.79-9.2-3.66-2.29-7.78-3.43-12.36-3.43-4.58,0-8.74,1.14-12.49,3.43-3.66,2.2-6.54,5.26-8.65,9.2-2.1,3.84-3.16,8.19-3.16,13.04s1.05,9.24,3.16,13.18,4.99,7.05,8.65,9.34c3.75,2.2,7.92,3.29,12.49,3.29ZM409.07,899.39c-7.32,0-13.87-1.6-19.63-4.8-5.77-3.29-10.25-7.82-13.45-13.59-3.2-5.77-4.8-12.31-4.8-19.63s1.6-14,4.8-19.77c3.2-5.77,7.69-10.25,13.45-13.45,5.77-3.29,12.31-4.94,19.63-4.94s13.68,1.65,19.36,4.94c5.77,3.2,10.25,7.69,13.45,13.45,3.29,5.77,4.94,12.36,4.94,19.77s-1.6,13.87-4.8,19.63c-3.2,5.77-7.69,10.3-13.45,13.59-5.67,3.2-12.17,4.8-19.49,4.8h0ZM409.07,887.03c4.67,0,8.83-1.1,12.49-3.29,3.75-2.2,6.64-5.22,8.65-9.06,2.1-3.94,3.16-8.37,3.16-13.32s-1.05-9.38-3.16-13.32c-2.01-3.94-4.9-7-8.65-9.2-3.66-2.2-7.82-3.29-12.49-3.29-4.67,0-8.88,1.1-12.63,3.29-3.66,2.2-6.54,5.26-8.65,9.2s-3.16,8.37-3.16,13.32c0,4.94,1.05,9.38,3.16,13.32,2.1,3.84,4.99,6.86,8.65,9.06,3.75,2.2,7.96,3.29,12.63,3.29ZM495.49,899.39c-7.32,0-13.87-1.6-19.63-4.8-5.77-3.29-10.25-7.82-13.45-13.59s-4.8-12.31-4.8-19.63,1.6-14,4.8-19.77c3.2-5.77,7.69-10.25,13.45-13.45,5.77-3.29,12.31-4.94,19.63-4.94s13.68,1.65,19.36,4.94c5.77,3.2,10.25,7.69,13.45,13.45,3.29,5.77,4.94,12.36,4.94,19.77,0,7.32-1.6,13.87-4.8,19.63-3.2,5.77-7.69,10.3-13.45,13.59-5.67,3.2-12.17,4.8-19.49,4.8ZM495.49,887.03c4.67,0,8.83-1.1,12.49-3.29,3.75-2.2,6.64-5.22,8.65-9.06,2.1-3.94,3.16-8.37,3.16-13.32s-1.05-9.38-3.16-13.32c-2.01-3.94-4.9-7-8.65-9.2-3.66-2.2-7.82-3.29-12.49-3.29-4.67,0-8.88,1.1-12.63,3.29-3.66,2.2-6.54,5.26-8.65,9.2s-3.16,8.37-3.16,13.32,1.05,9.38,3.16,13.32c2.1,3.84,4.99,6.86,8.65,9.06,3.75,2.2,7.96,3.29,12.63,3.29ZM581.92,899.39c-7.32,0-13.87-1.6-19.63-4.8-5.77-3.29-10.25-7.82-13.45-13.59s-4.8-12.31-4.8-19.63,1.6-14,4.8-19.77c3.2-5.77,7.69-10.25,13.45-13.45,5.77-3.29,12.31-4.94,19.63-4.94s13.68,1.65,19.36,4.94c5.77,3.2,10.25,7.69,13.45,13.45,3.29,5.77,4.94,12.36,4.94,19.77s-1.6,13.87-4.8,19.63c-3.2,5.77-7.69,10.3-13.45,13.59-5.67,3.2-12.17,4.8-19.49,4.8ZM581.92,887.03c4.67,0,8.83-1.1,12.49-3.29,3.75-2.2,6.64-5.22,8.65-9.06,2.1-3.94,3.16-8.37,3.16-13.32,0-4.94-1.05-9.38-3.16-13.32-2.01-3.94-4.9-7-8.65-9.2-3.66-2.2-7.82-3.29-12.49-3.29-4.67,0-8.88,1.1-12.63,3.29-3.66,2.2-6.54,5.26-8.65,9.2s-3.16,8.37-3.16,13.32,1.05,9.38,3.16,13.32c2.1,3.84,4.99,6.86,8.65,9.06,3.75,2.2,7.96,3.29,12.63,3.29ZM668.34,823.2c7.23,0,13.68,1.65,19.36,4.94,5.77,3.2,10.25,7.69,13.45,13.45,3.29,5.77,4.94,12.36,4.94,19.77v29.65c0,7.23-1.6,13.82-4.8,19.77-3.2,5.95-7.73,10.62-13.59,14-5.77,3.48-12.31,5.22-19.63,5.22-6.59,0-12.72-1.33-18.4-3.98-5.67-2.56-10.43-6.27-14.28-11.12-1.01-1.28-1.51-2.56-1.51-3.84,0-1.92.96-3.57,2.88-4.94,1.28-.82,2.56-1.24,3.84-1.24,2.29,0,4.16.96,5.63,2.88,2.47,3.2,5.58,5.63,9.34,7.28,3.75,1.74,8.01,2.61,12.77,2.61,4.48,0,8.56-1.1,12.22-3.29,3.66-2.1,6.59-5.26,8.79-9.47,2.2-4.12,3.29-9.06,3.29-14.83v-6.73c-2.84,5.03-6.59,8.97-11.26,11.81-4.67,2.84-9.93,4.26-15.79,4.26-6.77,0-12.86-1.6-18.26-4.8-5.31-3.29-9.47-7.82-12.49-13.59-2.93-5.77-4.39-12.31-4.39-19.63s1.6-14,4.8-19.77c3.2-5.77,7.69-10.25,13.45-13.45,5.77-3.29,12.31-4.94,19.63-4.94h0ZM668.34,887.03c4.67,0,8.83-1.1,12.49-3.29,3.75-2.2,6.64-5.22,8.65-9.06,2.1-3.94,3.16-8.37,3.16-13.32s-1.05-9.38-3.16-13.32c-2.01-3.94-4.9-7-8.65-9.2-3.66-2.2-7.82-3.29-12.49-3.29-4.67,0-8.88,1.1-12.63,3.29-3.66,2.2-6.54,5.26-8.65,9.2-2.1,3.94-3.16,8.37-3.16,13.32s1.05,9.38,3.16,13.32c2.1,3.84,4.99,6.86,8.65,9.06,3.75,2.2,7.96,3.29,12.63,3.29ZM770.55,885.94c4.3,0,6.45,2.15,6.45,6.45s-2.15,6.45-6.45,6.45h-46.81c-4.3,0-6.45-2.15-6.45-6.45,0-1.83.41-3.29,1.24-4.39l38.85-51.34h-35.01c-4.3,0-6.45-2.15-6.45-6.45s2.15-6.45,6.45-6.45h46.81c4.3,0,6.45,2.15,6.45,6.45,0,1.83-.41,3.29-1.24,4.39l-38.71,51.34h34.87Z"/>
</svg>