<svg xmlns="http://www.w3.org/2000/svg" viewBox="0 0 1600 900" role="img" aria-labelledby="title desc">
  <title id="title">Bubi</title>
  <desc id="desc">Зелёная круглая птица в ярком лесном игровом мире.</desc>
  <defs>
    <linearGradient id="sky" x1="0" y1="0" x2="0" y2="1"><stop stop-color="#77cee5"/><stop offset="1" stop-color="#d7f0aa"/></linearGradient>
    <linearGradient id="leaf" x1="0" y1="0" x2="1" y2="1"><stop stop-color="#88d45a"/><stop offset="1" stop-color="#2d9854"/></linearGradient>
    <linearGradient id="bird" x1="0" y1="0" x2="1" y2="1"><stop stop-color="#8ee95c"/><stop offset="1" stop-color="#3cab59"/></linearGradient>
    <filter id="shadow" x="-30%" y="-30%" width="160%" height="160%"><feDropShadow dx="0" dy="18" stdDeviation="14" flood-color="#174d46" flood-opacity=".32"/></filter>
  </defs>
  <rect width="1600" height="900" fill="url(#sky)"/>
  <circle cx="1262" cy="160" r="74" fill="#fff4a8"/>
  <path d="M0 553 194 414l180 129 202-155 211 180 153-95 178 131 179-142 303 154V900H0Z" fill="#4ba66b" opacity=".72"/>
  <path d="M0 641c202-79 387-61 555 18 191 89 378 60 526-11 197-95 340-85 519 4V900H0Z" fill="#27865c"/>
  <g fill="#27744f" opacity=".9">
    <path d="M90 674V243l-90 120h54l-80 119h78l-91 131h247l-92-131h79l-80-119h54Z"/>
    <path d="M1472 710V289l-91 122h54l-80 119h78l-91 131h248l-92-131h79l-80-119h54Z"/>
  </g>
  <g filter="url(#shadow)">
    <ellipse cx="803" cy="736" rx="211" ry="48" fill="#1c684f" opacity=".34"/>
    <ellipse cx="790" cy="494" rx="222" ry="235" fill="url(#bird)"/>
    <ellipse cx="850" cy="552" rx="126" ry="144" fill="#a9ef86" opacity=".7"/>
    <ellipse cx="634" cy="523" rx="66" ry="104" fill="#2e9853" transform="rotate(-25 634 523)"/>
    <ellipse cx="949" cy="526" rx="62" ry="95" fill="#2e9853" transform="rotate(24 949 526)"/>
    <ellipse cx="730" cy="395" rx="67" ry="75" fill="#fffdf3"/>
    <ellipse cx="854" cy="390" rx="67" ry="75" fill="#fffdf3"/>
    <circle cx="747" cy="414" r="27" fill="#1c2a33"/>
    <circle cx="871" cy="409" r="27" fill="#1c2a33"/>
    <circle cx="756" cy="404" r="8" fill="#fff"/>
    <circle cx="880" cy="399" r="8" fill="#fff"/>
    <path d="M783 465c26-18 54-18 80 0l-41 52Z" fill="#f5ad38"/>
    <path d="M718 678c25 0 43 14 43 32h-86c0-18 18-32 43-32Zm175 0c25 0 43 14 43 32h-86c0-18 18-32 43-32Z" fill="#f3b54d"/>
  </g>
  <g fill="#d0ffa0"><circle cx="350" cy="501" r="11"/><circle cx="1240" cy="490" r="8"/><circle cx="1188" cy="603" r="7"/></g>
</svg>