<svg xmlns="http://www.w3.org/2000/svg" viewBox="0 0 1600 900" role="img" aria-labelledby="title desc">
  <title id="title">Cloudline Courier</title>
  <desc id="desc">Маленький воздушный курьер летит между облачными островами.</desc>
  <defs>
    <linearGradient id="sky" x1="0" y1="0" x2="0" y2="1"><stop stop-color="#58b9e8"/><stop offset="1" stop-color="#bdeaf5"/></linearGradient>
    <linearGradient id="ship" x1="0" y1="0" x2="1" y2="1"><stop stop-color="#f2c65d"/><stop offset="1" stop-color="#df8143"/></linearGradient>
    <filter id="shadow" x="-40%" y="-40%" width="180%" height="180%"><feDropShadow dx="0" dy="12" stdDeviation="11" flood-color="#27719e" flood-opacity=".25"/></filter>
  </defs>
  <rect width="1600" height="900" fill="url(#sky)"/>
  <circle cx="1214" cy="154" r="70" fill="#fff3a7"/>
  <g fill="#f5fdff" opacity=".96">
    <path d="M0 300c57-87 168-73 196 8 84-72 211-18 213 73H0Z"/>
    <path d="M1216 376c55-84 152-64 181 13 78-65 195-12 203 80h-384Z"/>
    <path d="M211 708c65-77 168-66 204 11 90-69 204-1 212 86H0v-53c52-56 146-54 211-44Z"/>
  </g>
  <g filter="url(#shadow)">
    <path d="M756 355c-104 0-177 70-177 159 0 94 76 155 189 155 119 0 202-63 202-157 0-91-85-157-214-157Z" fill="url(#ship)"/>
    <path d="M755 310c-78 0-132 55-132 125 0 68 55 116 132 116s132-48 132-116c0-70-54-125-132-125Z" fill="#f7e7a9"/>
    <path d="M755 337c-59 0-98 41-98 94 0 48 39 85 98 85 58 0 98-37 98-85 0-53-39-94-98-94Z" fill="#324d6f"/>
    <circle cx="722" cy="416" r="16" fill="#d6fbff"/><circle cx="788" cy="416" r="16" fill="#d6fbff"/>
    <path d="M614 495 492 563l123 47 37-54Zm308 0 122 68-123 47-37-54Z" fill="#d76845"/>
    <path d="M707 655h99l-22 107h-55Z" fill="#8d5b4b"/>
    <rect x="730" y="685" width="51" height="43" rx="7" fill="#72c675"/>
  </g>
  <g fill="#4fa779"><path d="M122 820c47-111 117-182 213-213 6 106-38 183-132 232Z"/><path d="M1370 832c-55-118-129-185-224-210-5 105 42 184 141 234Z"/></g>
</svg>