<svg xmlns="http://www.w3.org/2000/svg" viewBox="0 0 1600 900" role="img" aria-labelledby="title desc">
  <title id="title">Signal Bloom</title>
  <desc id="desc">Светящийся сад в сумеречном мире.</desc>
  <defs>
    <linearGradient id="sky" x1="0" y1="0" x2="0" y2="1"><stop stop-color="#162b55"/><stop offset="1" stop-color="#443471"/></linearGradient>
    <linearGradient id="hill" x1="0" y1="0" x2="1" y2="1"><stop stop-color="#294d68"/><stop offset="1" stop-color="#1b304d"/></linearGradient>
    <radialGradient id="bloom"><stop stop-color="#fff6bd"/><stop offset=".35" stop-color="#b8dfff"/><stop offset="1" stop-color="#8068ff"/></radialGradient>
    <filter id="glow" x="-80%" y="-80%" width="260%" height="260%"><feGaussianBlur stdDeviation="12" result="blur"/><feMerge><feMergeNode in="blur"/><feMergeNode in="SourceGraphic"/></feMerge></filter>
  </defs>
  <rect width="1600" height="900" fill="url(#sky)"/>
  <g fill="#dce9ff" opacity=".76"><circle cx="174" cy="112" r="3"/><circle cx="376" cy="179" r="4"/><circle cx="620" cy="94" r="3"/><circle cx="902" cy="155" r="4"/><circle cx="1290" cy="102" r="3"/><circle cx="1463" cy="222" r="4"/></g>
  <path d="M0 585 229 414l223 151 183-177 195 190 168-109 241 149 171-122 190 115V900H0Z" fill="url(#hill)"/>
  <path d="M0 694c228-99 404-68 578 6 194 82 345 86 545 4 162-66 320-87 477 4V900H0Z" fill="#1d4d60"/>
  <g stroke="#4fb589" stroke-width="24" stroke-linecap="round">
    <path d="M304 742c7-120 18-183 57-254"/><path d="M604 770c-4-115-6-195-50-278"/><path d="M1046 761c5-122 23-191 70-270"/><path d="M1328 778c-4-112-11-177-52-242"/>
  </g>
  <g filter="url(#glow)">
    <g fill="url(#bloom)"><circle cx="361" cy="455" r="61"/><circle cx="554" cy="465" r="51"/><circle cx="1116" cy="460" r="67"/><circle cx="1276" cy="511" r="48"/></g>
    <g fill="#d0fbff"><circle cx="362" cy="454" r="14"/><circle cx="554" cy="464" r="12"/><circle cx="1115" cy="460" r="15"/><circle cx="1277" cy="511" r="11"/></g>
  </g>
  <path d="M727 900c-44-82-52-159-17-229 35-72 85-139 61-230 111 90 125 169 79 246-43 73-47 145 0 213Z" fill="#c779dd" opacity=".58"/>
</svg>