<svg xmlns="http://www.w3.org/2000/svg" viewBox="0 0 1600 900" role="img" aria-labelledby="title desc">
  <title id="title">Tiny Orbit</title>
  <desc id="desc">Небольшая планета с кольцом и космическими островками.</desc>
  <defs>
    <radialGradient id="space" cx=".5" cy=".35" r=".85"><stop stop-color="#26395f"/><stop offset="1" stop-color="#10172e"/></radialGradient>
    <radialGradient id="planet" cx=".32" cy=".24" r=".8"><stop stop-color="#dbb5ff"/><stop offset=".52" stop-color="#8267cf"/><stop offset="1" stop-color="#4a3c93"/></radialGradient>
    <filter id="glow" x="-70%" y="-70%" width="240%" height="240%"><feGaussianBlur stdDeviation="11" result="blur"/><feMerge><feMergeNode in="blur"/><feMergeNode in="SourceGraphic"/></feMerge></filter>
  </defs>
  <rect width="1600" height="900" fill="url(#space)"/>
  <g fill="#f6f2ff"><circle cx="140" cy="170" r="4"/><circle cx="315" cy="312" r="3"/><circle cx="498" cy="111" r="5"/><circle cx="719" cy="231" r="3"/><circle cx="1021" cy="127" r="4"/><circle cx="1280" cy="273" r="5"/><circle cx="1450" cy="142" r="3"/><circle cx="1323" cy="691" r="4"/><circle cx="241" cy="723" r="5"/></g>
  <g opacity=".8" filter="url(#glow)"><circle cx="354" cy="238" r="10" fill="#9ce7ff"/><circle cx="1241" cy="623" r="9" fill="#ffc7f1"/><circle cx="1132" cy="287" r="7" fill="#bdffbd"/></g>
  <ellipse cx="800" cy="512" rx="360" ry="116" fill="none" stroke="#f0c378" stroke-width="45" transform="rotate(-17 800 512)" opacity=".94"/>
  <circle cx="800" cy="500" r="228" fill="url(#planet)"/>
  <path d="M624 428c74-115 242-150 365-68-54-13-117-3-166 36-46 36-64 80-72 143-84-19-132-52-127-111Z" fill="#af99f7" opacity=".62"/>
  <g fill="#6b56b4" opacity=".72"><circle cx="725" cy="471" r="38"/><circle cx="874" cy="577" r="51"/><circle cx="903" cy="408" r="25"/></g>
  <g fill="#72cf91"><path d="M572 469c-69-31-97-105-72-176 67 35 98 101 72 176Z"/><path d="M1034 604c59-35 129-22 169 39-62 27-123 17-169-39Z"/></g>
  <g fill="#f5d778"><path d="M468 727c-70-16-120-65-135-132 84 2 135 49 135 132Z"/><path d="M1195 382c68 10 117 55 135 119-79 5-131-39-135-119Z"/></g>
  <g fill="#ffeaa3"><circle cx="760" cy="609" r="13"/><circle cx="830" cy="455" r="9"/><circle cx="865" cy="503" r="7"/></g>
</svg>