<svg xmlns="http://www.w3.org/2000/svg" viewBox="0 0 1600 900" role="img" aria-labelledby="title desc">
  <title id="title">Игровой лесной мир</title>
  <desc id="desc">Широкий лесной пейзаж с сияющими тропами и далёкими горами.</desc>
  <defs>
    <linearGradient id="sky" x1="0" y1="0" x2="0" y2="1">
      <stop stop-color="#142b4b"/>
      <stop offset=".58" stop-color="#285a72"/>
      <stop offset="1" stop-color="#8bbd96"/>
    </linearGradient>
    <linearGradient id="ground" x1="0" y1="0" x2="1" y2="1">
      <stop stop-color="#265c4e"/>
      <stop offset="1" stop-color="#123e3a"/>
    </linearGradient>
    <linearGradient id="path" x1="0" y1="0" x2="0" y2="1">
      <stop stop-color="#ffd06a"/>
      <stop offset="1" stop-color="#e58d37"/>
    </linearGradient>
    <filter id="glow" x="-50%" y="-50%" width="200%" height="200%">
      <feGaussianBlur stdDeviation="10" result="blur"/>
      <feMerge><feMergeNode in="blur"/><feMergeNode in="SourceGraphic"/></feMerge>
    </filter>
  </defs>
  <rect width="1600" height="900" fill="url(#sky)"/>
  <circle cx="1210" cy="166" r="86" fill="#ffe49b" opacity=".94"/>
  <circle cx="1210" cy="166" r="122" fill="#ffe49b" opacity=".1" filter="url(#glow)"/>
  <path d="M0 520 196 352l145 112 176-184 187 194 174-135 163 142 145-196 214 225V900H0Z" fill="#1b4557" opacity=".78"/>
  <path d="M0 595 250 468l186 106 182-142 183 166 159-105 245 138 189-88 156 95V900H0Z" fill="#1e604f"/>
  <path d="M0 670c180-76 301-50 454 9 182 70 271 76 444 12 202-75 357-48 702 82V900H0Z" fill="url(#ground)"/>
  <path d="M790 900c-55-94-61-178-8-257 45-67 90-116 80-215 111 96 118 172 74 242-47 75-56 148-10 230Z" fill="url(#path)" opacity=".96"/>
  <g fill="#164239">
    <path d="M98 774V406l-74 92h42l-67 94h68l-78 106h218l-79-106h67l-67-94h42Z"/>
    <path d="M288 790V489l-70 87h40l-65 91h65l-76 104h211l-76-104h64l-65-91h40Z"/>
    <path d="M1300 792V438l-84 104h48l-75 106h74l-86 118h238l-86-118h74l-75-106h48Z"/>
    <path d="M1490 804V500l-72 89h42l-66 93h65l-76 104h214l-77-104h65l-66-93h42Z"/>
  </g>
  <g fill="#b9f3a5" filter="url(#glow)">
    <circle cx="496" cy="645" r="8"/><circle cx="581" cy="588" r="6"/><circle cx="1080" cy="671" r="8"/><circle cx="1177" cy="608" r="5"/><circle cx="695" cy="515" r="5"/>
  </g>
  <g fill="#d4f5bc" opacity=".9"><circle cx="495" cy="644" r="3"/><circle cx="1080" cy="671" r="3"/></g>
</svg>